<?xml version="1.0"?><svg xmlns="http://www.w3.org/2000/svg" xmlns:xlink="http://www.w3.org/1999/xlink"><symbol viewBox="0 0 145 310" id="liftarn_Adele_Schopenhauer" xmlns="http://www.w3.org/2000/svg"><path d="M7.028 300.9c.015-2.42.677-14.52 1.472-26.9s1.457-27.1 1.472-32.73c.026-9.59-.216-10.84-3.879-20-9.143-22.87-7.612-31.51 8.518-48.06 4.46-4.58 8.723-9.53 9.472-11.02.749-1.48 2.881-4.43 4.737-6.55 4.885-5.59 5.901-8.84 6.63-21.19.608-10.29.506-11.24-1.471-13.75-1.332-1.69-3.122-2.72-4.802-2.75-1.472-.02-4.252-.82-6.177-1.76-3.45-1.68-3.502-1.8-3.617-8.29-.064-3.62-.863-8.828-1.774-11.573-1.537-4.628-2.002-5.1-6.384-6.481-3.36-1.059-4.644-1.958-4.444-3.114.3-1.733 6.207-10.907 9.164-14.232 3.236-3.639 4.19-8.24 2.533-12.208-2.768-6.623-1.206-17.653 3.42-24.149 1.399-1.964 1.767-3.232 1.065-3.666-1.31-.809-.319-9.93 1.374-12.653.64-1.03 2.43-2.424 3.979-3.098 1.8-.784 3.018-2.219 3.375-3.977.761-3.743 10.7-10.146 13.457-8.67 1.019.545 1.859 1.313 1.867 1.706.009.393.431 1.372.939 2.175.791 1.25 1.221 1.192 2.984-.404 3.03-2.742 14.456-3.415 17.116-1.007C69.124 7.517 70 9.323 70 10.562c0 1.851.936 2.532 5.25 3.822 8.436 2.522 8.907 2.473 10.141-1.06C86.278 10.785 95.144 1 96.558 1c.191 0 1.382.419 2.645.93 1.267.513 3.537 1.197 5.057 1.522 4.11.88 8.74 7.779 8.74 13.031 0 5.32.79 6.063 3.62 3.404 2.73-2.565 4.73-2.328 15.88 1.878 12.77 4.817 13.5 5.142 13.5 5.993 0 .445-2.92 4.777-6.5 9.628-6.78 9.202-7.49 10.96-5 12.355 1.46.817 5.5 10.805 5.5 13.6 0 .764-.9 2.533-2 3.932-1.34 1.698-2 4.057-2 7.1 0 3.71-.42 4.775-2.25 5.734-1.24.647-4.2 2.958-6.59 5.135-3.99 3.65-4.66 3.91-8.5 3.34-4.04-.603-4.39-.42-12.15 6.4-4.39 3.86-8.44 7.038-8.997 7.058s-2.255 1.05-3.773 2.29c-9.018 7.38-4.015 35.66 8.97 50.68 4.86 5.63 10.56 13.71 11.97 16.99.6 1.38 2.87 4.52 5.05 7 5.5 6.24 7.53 13.05 7.89 26.49.16 6.06.59 19.33.95 29.51.59 16.67-.37 34.71-2.1 39.21-.44 1.16-1.68 1.22-7.25.31-3.96-.64-11.45-.84-18.22-.47-9.981.53-12.359 1.02-18 3.67-3.575 1.67-8.05 4.22-9.944 5.66-4.178 3.18-5.709 3.27-7.963.49-2.025-2.5-2.259-2.41-14.047 5.38-13.986 9.24-26.817 14.56-37.296 15.46l-6.75.58.028-4.39z"/></symbol><symbol viewBox="0 0 231.35 69.158" id="zager_Czech_Tramway" xmlns="http://www.w3.org/2000/svg"><path fill-rule="evenodd" d="M166.841 0l.9 4.54 1.99.19.25-1.22 19.99 7.8-19.73 8.68-.35 1.39h-1.34v1.75h-2.28v1.34l-22.63-.27-.19 1.28h-4.89v-3.09h-13.93l-.19 2.9-4.89.19v-3.09h-7.76v3.09l-4.89-.19-.18-2.9h-13.94v3.09h-4.89l-.18-1.28-46.166.55-21.176 1.34c-3.206-.11-6.925.76-7.6 2.18-2.139 5.68-3.494 13.21-4.362 20.92l-.174 11.22h1.992l.204.8H4.801c-.284-.37-.804-.61-1.41-.61H1.644C.735 60.6 0 61.15 0 61.83c0 .69.735 1.25 1.644 1.25h1.747c.591 0 1.1-.24 1.389-.59h5.966l.204.82-1.818.36c.192 1.33 1.49 2.19 5.251 1.99l29.512-.18c.557 3.07 5.64 5.29 9.05 2.18l1.093 1.08h17.023l1.08-.9c3.48 2.13 7.83 1.34 8.69-2.53h1.45l.54.54h65.7l.54-.54h1.45c.86 3.87 5.21 4.66 8.69 2.53l1.09.9h17.02l1.09-1.08c3.41 3.11 8.49.89 9.05-2.18l29.51.18c3.76.2 5.06-.66 5.25-1.99l-1.82-.36.21-.82h5.96c.29.35.8.59 1.39.59h1.75c.91 0 1.64-.56 1.64-1.25 0-.68-.73-1.23-1.64-1.23h-1.75c-.6 0-1.12.24-1.41.61h-5.63l.21-.8h1.99l-.17-11.22c-.87-7.71-2.23-15.24-4.36-20.92-.68-1.42-4.4-2.29-7.6-2.18l-21.18-1.34-2.77-.03v-1.59h-3.11v-1.75h-.86l-.24-1.77-7.28-.19 17.3-7.86.07-1.21-21.97-8.5.26-1.79-4.36-.06zM44.551 32.74h8.602v3.47h-8.602v-3.47zm9.439 0h8.612v3.47H53.99v-3.47zm11.319 0h8.605v3.47h-8.605v-3.47zm9.435 0h8.62v3.47h-8.62v-3.47zm11.02 0h8.15v3.47h-8.15v-3.47zm8.93 0h8.17v3.47h-8.17v-3.47zm33.8 0h8.15v3.47h-8.15v-3.47zm8.95 0h8.14v3.47h-8.14v-3.47zm10.55 0h8.61v3.47h-8.61v-3.47zm9.45 0h8.6v3.47h-8.6v-3.47zm11.3 0h8.62v3.47h-8.62v-3.47zm9.45 0h8.61v3.47h-8.61v-3.47zm-165.64.61h4.955c.909 0 1.634.74 1.634 1.65v11.58c0 .91-.725 1.64-1.634 1.64H9.745c.557-5.07 1.309-10.07 2.809-14.87zm201.29 0h4.95c1.5 4.8 2.24 9.8 2.8 14.87h-7.75c-.91 0-1.65-.73-1.65-1.64V35c0-.91.74-1.65 1.65-1.65zM24.754 34.9h4.148c.909 0 1.634.73 1.634 1.64v19.4c0 .91-.725 1.64-1.634 1.64h-4.148c-.909 0-1.644-.73-1.644-1.64v-19.4c0-.91.735-1.64 1.644-1.64zm9.746 0h4.147c.909 0 1.645.73 1.645 1.64v19.4c0 .91-.736 1.64-1.645 1.64H34.5a1.64 1.64 0 01-1.645-1.64v-19.4c0-.91.736-1.64 1.645-1.64zm73.654 0h4.15c.9 0 1.64.73 1.64 1.64v19.4c0 .91-.74 1.64-1.64 1.64h-4.15c-.91 0-1.65-.73-1.65-1.64v-19.4c0-.91.74-1.64 1.65-1.64zm10.9 0h4.14c.91 0 1.65.73 1.65 1.64v19.4c0 .91-.74 1.64-1.65 1.64h-4.14c-.91 0-1.65-.73-1.65-1.64v-19.4c0-.91.74-1.64 1.65-1.64zm73.65 0h4.15c.91 0 1.64.73 1.64 1.64v19.4c0 .91-.73 1.64-1.64 1.64h-4.15c-.91 0-1.64-.73-1.64-1.64v-19.4c0-.91.73-1.64 1.64-1.64zm9.75 0h4.14c.91 0 1.65.73 1.65 1.64v19.4c0 .91-.74 1.64-1.65 1.64h-4.14c-.91 0-1.65-.73-1.65-1.64v-19.4c0-.91.74-1.64 1.65-1.64zm-157.89 1.98h18.019V48H44.564V36.88zm20.757 0h18.015V48H65.321V36.88zm20.455 0h17.07v15.47h-13.13L85.776 48V36.88zm42.74 0h17.07V48l-3.95 4.35h-13.12V36.88zm19.5 0h18.02V48h-18.02V36.88zm20.76 0h18.02V48h-18.02V36.88z"/></symbol></svg>