<svg xmlns="http://www.w3.org/2000/svg" width="51" height="49"><path fill-rule="evenodd" fill="#FFE500" d="M50.762 6.035c.001-.046.006-.093.006-.139 0-.05-.005-.096-.006-.143v-.03h-.001C50.67 3.032 48.478.876 45.781.876h-.01c-1.037 0-2.002.32-2.798.866l-14.444 8.326a4.938 4.938 0 01-2.765.843 4.948 4.948 0 01-2.739-.825h-.004L8.541 1.735A4.944 4.944 0 005.758.876C3.076.876.895 3.007.781 5.676l-.012.01v27.962l.008.001c0 .061-.008.118-.008.177 0 2.772 2.233 5.019 4.989 5.019 2.753 0 4.986-2.247 4.986-5.019 0-.049-.004-.093-.006-.142V13.88l12.582 6.362c.129.071.262.139.399.2l.104.053.001-.002a4.95 4.95 0 001.94.393c.687 0 1.341-.139 1.936-.392v.001l.015-.007a5.15 5.15 0 00.514-.259l12.566-6.353v29.79c-.004.064-.011.128-.011.193 0 2.771 2.233 5.018 4.987 5.018s4.988-2.247 4.988-5.018v-.004l.003.004V6.035z"/></svg>